<svg version="1.1" id="Layer_1" xmlns="http://www.w3.org/2000/svg" xmlns:xlink="http://www.w3.org/1999/xlink" x="0px" y="0px"
	 width="100%" viewBox="0 0 500 500" enable-background="new 0 0 500 500" xml:space="preserve">
<path fill="#E62F45" opacity="1.000000" stroke="none" 
	d="
M282.000000,501.000000 
	C188.000015,501.000000 94.500046,501.000000 1.000050,501.000000 
	C1.000033,334.333405 1.000033,167.666794 1.000017,1.000140 
	C167.666565,1.000093 334.333130,1.000093 500.999756,1.000046 
	C500.999847,167.666519 500.999847,334.333038 500.999939,500.999786 
	C428.166656,501.000000 355.333344,501.000000 282.000000,501.000000 
M187.688049,293.666229 
	C188.168915,293.742310 188.649796,293.818420 189.094666,293.971283 
	C189.094666,293.971283 189.169754,293.931885 188.550064,294.261566 
	C189.087601,294.508179 189.625137,294.754791 190.767181,295.263855 
	C192.928085,297.020691 194.910355,299.080994 197.283142,300.477966 
	C204.626984,304.801575 212.119522,308.872650 219.943466,313.706696 
	C242.827301,323.058075 266.355713,324.483154 290.422974,319.492859 
	C306.648102,316.128601 321.138000,308.862579 334.996674,300.823944 
	C335.201874,305.800385 335.172943,310.803253 335.729370,315.740082 
	C335.946869,317.670258 337.479095,319.452240 338.412537,321.301727 
	C339.548676,319.429047 340.816376,317.619354 341.757751,315.653412 
	C342.147339,314.839783 341.917053,313.684814 341.833405,312.696503 
	C341.358978,307.092773 343.013489,302.160522 346.711090,297.999298 
	C353.326080,290.554871 360.283325,283.400146 366.619171,275.729248 
	C369.137390,272.680389 370.998657,268.746033 372.031769,264.911133 
	C373.038177,261.175476 372.604156,257.051758 373.184631,252.365875 
	C380.347137,238.269974 384.128418,223.202728 384.784515,207.520264 
	C385.979248,178.960953 377.035950,153.373367 360.910461,129.405304 
	C360.462982,126.424110 360.755493,123.053955 359.430847,120.533798 
	C355.260559,112.599625 350.465576,104.994781 345.945862,97.242958 
	C342.037445,90.539642 338.174683,83.809715 334.278473,77.068581 
	C323.707428,84.199768 322.165497,88.157982 324.904816,98.030014 
	C318.200745,94.940598 311.550018,91.725250 304.757141,88.845329 
	C302.930420,88.070869 300.671265,88.316528 297.869690,88.100807 
	C274.820831,79.292488 251.712158,79.698334 228.600784,87.777092 
	C214.521042,92.698769 201.725754,100.018967 189.026031,109.068687 
	C188.369949,110.229500 187.713852,111.390305 187.045837,112.644394 
	C187.045837,112.644394 187.026474,112.640144 186.346054,111.921539 
	C181.556839,116.460701 176.337936,120.630806 172.061142,125.610092 
	C160.483582,139.089294 152.731155,154.632294 148.095444,172.576401 
	C157.710800,162.231522 171.223373,164.805222 176.949402,171.740738 
	C183.420013,179.578110 182.627823,191.218048 174.858063,197.728912 
	C169.935425,201.853943 164.268387,203.008423 158.024323,201.365646 
	C151.925446,199.761063 148.211533,195.414185 144.922363,190.154739 
	C144.918518,200.304245 144.725235,210.350266 146.100616,220.176697 
	C149.900452,247.324738 162.318192,270.216644 182.120438,289.107635 
	C182.933960,289.883728 184.352173,290.025940 185.375183,290.692566 
	C185.375183,290.692566 185.125351,290.746735 185.098343,291.616058 
	C185.754807,291.704498 186.411255,291.792938 186.992569,291.972565 
	C186.992569,291.972565 187.082031,291.896698 186.644440,292.694214 
	C187.133087,292.766998 187.621735,292.839783 188.009659,292.988220 
	C188.009659,292.988220 188.087540,292.889191 187.688049,293.666229 
z"/>
<path fill="#020101" opacity="1.000000" stroke="none" 
	d="
M185.488663,290.463501 
	C184.352173,290.025940 182.933960,289.883728 182.120438,289.107635 
	C162.318192,270.216644 149.900452,247.324738 146.100616,220.176697 
	C144.725235,210.350266 144.918518,200.304245 144.922363,190.154739 
	C148.211533,195.414185 151.925446,199.761063 158.024323,201.365646 
	C164.268387,203.008423 169.935425,201.853943 174.858063,197.728912 
	C182.627823,191.218048 183.420013,179.578110 176.949402,171.740738 
	C171.223373,164.805222 157.710800,162.231522 148.095444,172.576401 
	C152.731155,154.632294 160.483582,139.089294 172.061142,125.610092 
	C176.337936,120.630806 181.556839,116.460701 186.427979,112.584885 
	C184.855484,114.862823 183.219910,116.497276 181.543030,118.088181 
	C176.954681,122.441231 175.265060,131.105225 178.570923,135.464661 
	C196.621780,117.567932 218.243347,106.762138 243.414413,103.166412 
	C263.792694,100.255325 306.898529,110.849167 313.010315,120.385109 
	C306.757721,121.258865 300.524261,122.063522 294.312927,123.013031 
	C284.170990,124.563370 274.304108,133.527191 272.271942,143.072418 
	C273.443085,143.072418 274.606262,143.248123 275.699799,143.046448 
	C297.260620,139.070312 318.859436,140.251770 340.372070,143.093231 
	C346.928131,143.959183 351.230347,141.380493 355.211517,137.152283 
	C357.240173,134.997757 358.906525,132.502121 360.736664,130.160675 
	C377.035950,153.373367 385.979248,178.960953 384.784515,207.520264 
	C384.128418,223.202728 380.347137,238.269974 372.775665,252.374954 
	C371.360474,249.586441 370.814362,246.513412 366.486084,247.237488 
	C348.438202,250.256622 330.358429,253.085114 312.309540,256.098480 
	C306.741882,257.028015 305.642670,259.266235 306.599548,266.550262 
	C307.469482,273.172394 308.376617,273.891357 314.563416,273.500763 
	C322.701965,272.986938 330.848907,272.605408 338.992218,272.166962 
	C339.131531,272.642944 339.270813,273.118927 339.410126,273.594910 
	C333.974731,276.208435 328.595581,278.947296 323.094482,281.414307 
	C295.653595,293.720428 267.962219,301.269440 237.080978,294.518341 
	C201.187378,286.671478 177.047562,266.948456 164.918991,232.427261 
	C162.924835,226.751389 161.434967,220.898346 159.712051,215.127182 
	C159.146942,215.096344 158.581833,215.065506 158.016739,215.034668 
	C157.362137,218.610992 155.748672,222.316193 156.209137,225.742676 
	C159.117264,247.382889 165.439133,267.736786 180.358704,284.494843 
	C182.102890,286.453949 183.780304,288.472504 185.488663,290.463501 
M301.015686,149.253998 
	C300.284943,148.938614 299.523041,148.294144 298.828400,148.359940 
	C293.251892,148.888123 287.695160,149.998352 282.119080,150.086105 
	C266.499054,150.331879 250.872681,150.164825 235.248840,150.184250 
	C233.695663,150.186188 232.142685,150.349945 230.589615,150.438599 
	C231.199097,151.473969 231.862656,151.728104 232.549561,151.866440 
	C238.588669,153.082718 240.864868,155.702621 240.991943,161.658737 
	C241.030945,163.486343 241.018188,165.315033 240.317444,167.146378 
	C233.861664,161.286255 227.405884,155.426132 222.287216,150.779755 
	C222.287216,155.408173 222.287109,161.983292 222.287216,168.558395 
	C222.287582,191.219482 222.289948,213.880569 222.287598,236.541656 
	C222.286530,246.744003 221.599106,247.594360 211.644135,249.887970 
	C211.529083,249.914474 211.530014,250.444443 211.428909,251.004868 
	C220.128220,251.004868 228.772659,251.062943 237.413757,250.919373 
	C238.326126,250.904205 239.218781,249.703369 241.041336,249.005188 
	C261.682556,248.954514 282.323761,248.903839 303.572388,249.208466 
	C304.872131,250.481461 306.171906,251.754456 307.471680,253.027451 
	C307.997803,252.796005 308.523926,252.564560 309.050049,252.333130 
	C304.302673,240.250305 308.834900,228.061935 307.530365,215.722198 
	C305.824432,199.585648 307.019470,183.131638 307.185242,166.816406 
	C307.221436,163.253387 307.194031,159.044312 308.997009,156.328522 
	C310.753418,153.682922 314.817993,152.569672 317.716156,150.873184 
	C312.452057,150.611145 306.720795,150.325851 301.015686,149.253998 
M376.940308,194.288010 
	C377.625854,192.966690 378.438446,191.694901 378.976013,190.315887 
	C382.092682,182.320831 379.137329,173.188843 371.940643,168.377792 
	C365.282867,163.927017 355.176147,164.790695 349.302338,170.312378 
	C343.143799,176.101761 341.765015,185.920197 346.088348,193.200195 
	C352.666168,204.276566 367.155914,205.072220 376.940308,194.288010 
z"/>
<path fill="#FCFAFA" opacity="1.000000" stroke="none" 
	d="
M185.431915,290.578033 
	C183.780304,288.472504 182.102890,286.453949 180.358704,284.494843 
	C165.439133,267.736786 159.117264,247.382889 156.209137,225.742676 
	C155.748672,222.316193 157.362137,218.610992 158.016739,215.034668 
	C158.581833,215.065506 159.146942,215.096344 159.712051,215.127182 
	C161.434967,220.898346 162.924835,226.751389 164.918991,232.427261 
	C177.047562,266.948456 201.187378,286.671478 237.080978,294.518341 
	C267.962219,301.269440 295.653595,293.720428 323.094482,281.414307 
	C328.595581,278.947296 333.974731,276.208435 339.410126,273.594910 
	C339.270813,273.118927 339.131531,272.642944 338.992218,272.166962 
	C330.848907,272.605408 322.701965,272.986938 314.563416,273.500763 
	C308.376617,273.891357 307.469482,273.172394 306.599548,266.550262 
	C305.642670,259.266235 306.741882,257.028015 312.309540,256.098480 
	C330.358429,253.085114 348.438202,250.256622 366.486084,247.237488 
	C370.814362,246.513412 371.360474,249.586441 372.584625,252.741241 
	C372.604156,257.051758 373.038177,261.175476 372.031769,264.911133 
	C370.998657,268.746033 369.137390,272.680389 366.619171,275.729248 
	C360.283325,283.400146 353.326080,290.554871 346.711090,297.999298 
	C343.013489,302.160522 341.358978,307.092773 341.833405,312.696503 
	C341.917053,313.684814 342.147339,314.839783 341.757751,315.653412 
	C340.816376,317.619354 339.548676,319.429047 338.412537,321.301727 
	C337.479095,319.452240 335.946869,317.670258 335.729370,315.740082 
	C335.172943,310.803253 335.201874,305.800385 335.070801,299.958405 
	C335.607880,294.531677 333.067719,297.589294 332.014526,298.002899 
	C319.704285,302.837372 307.723785,308.758423 295.091309,312.469910 
	C273.834076,318.715393 252.080963,320.596161 230.189896,314.917877 
	C226.716202,314.016846 223.103012,313.653656 219.554321,313.041809 
	C212.119522,308.872650 204.626984,304.801575 197.283142,300.477966 
	C194.910355,299.080994 192.928085,297.020691 190.373291,294.858032 
	C189.709518,294.278748 189.439636,294.105316 189.169754,293.931885 
	C189.169754,293.931885 189.094666,293.971283 189.144409,293.623993 
	C188.825272,293.147552 188.456406,293.018372 188.087540,292.889191 
	C188.087540,292.889191 188.009659,292.988220 188.054474,292.657440 
	C187.760193,292.183319 187.421112,292.040009 187.082031,291.896698 
	C187.082031,291.896698 186.992569,291.972565 186.951477,291.572205 
	C186.315353,291.030182 185.720352,290.888458 185.125351,290.746735 
	C185.125351,290.746735 185.375183,290.692566 185.431915,290.578033 
z"/>
<path fill="#FCFCFC" opacity="1.000000" stroke="none" 
	d="
M360.823547,129.782990 
	C358.906525,132.502121 357.240173,134.997757 355.211517,137.152283 
	C351.230347,141.380493 346.928131,143.959183 340.372070,143.093231 
	C318.859436,140.251770 297.260620,139.070312 275.699799,143.046448 
	C274.606262,143.248123 273.443085,143.072418 272.271942,143.072418 
	C274.304108,133.527191 284.170990,124.563370 294.312927,123.013031 
	C300.524261,122.063522 306.757721,121.258865 313.010315,120.385109 
	C306.898529,110.849167 263.792694,100.255325 243.414413,103.166412 
	C218.243347,106.762138 196.621780,117.567932 178.570923,135.464661 
	C175.265060,131.105225 176.954681,122.441231 181.543030,118.088181 
	C183.219910,116.497276 184.855484,114.862823 186.768188,112.944183 
	C187.026474,112.640144 187.045837,112.644394 187.350647,112.422165 
	C188.387573,111.131813 189.119690,110.063705 189.851807,108.995590 
	C201.725754,100.018967 214.521042,92.698769 228.600784,87.777092 
	C251.712158,79.698334 274.820831,79.292488 298.427277,88.421143 
	C308.144226,92.799576 317.303589,96.857681 327.123138,101.208290 
	C326.408508,99.712494 326.058960,98.980865 325.709412,98.249237 
	C322.165497,88.157982 323.707428,84.199768 334.278473,77.068581 
	C338.174683,83.809715 342.037445,90.539642 345.945862,97.242958 
	C350.465576,104.994781 355.260559,112.599625 359.430847,120.533798 
	C360.755493,123.053955 360.462982,126.424110 360.823547,129.782990 
z"/>
<path fill="#711B23" opacity="1.000000" stroke="none" 
	d="
M219.748901,313.374268 
	C223.103012,313.653656 226.716202,314.016846 230.189896,314.917877 
	C252.080963,320.596161 273.834076,318.715393 295.091309,312.469910 
	C307.723785,308.758423 319.704285,302.837372 332.014526,298.002899 
	C333.067719,297.589294 335.607880,294.531677 335.011169,299.486572 
	C321.138000,308.862579 306.648102,316.128601 290.422974,319.492859 
	C266.355713,324.483154 242.827301,323.058075 219.748901,313.374268 
z"/>
<path fill="#230E10" opacity="1.000000" stroke="none" 
	d="
M325.307129,98.139626 
	C326.058960,98.980865 326.408508,99.712494 327.123138,101.208290 
	C317.303589,96.857681 308.144226,92.799576 298.797729,88.417694 
	C300.671265,88.316528 302.930420,88.070869 304.757141,88.845329 
	C311.550018,91.725250 318.200745,94.940598 325.307129,98.139626 
z"/>
<path fill="#020101" opacity="1.000000" stroke="none" 
	d="
M189.438919,109.032143 
	C189.119690,110.063705 188.387573,111.131813 187.356598,112.375519 
	C187.713852,111.390305 188.369949,110.229500 189.438919,109.032143 
z"/>
<path fill="#020101" opacity="1.000000" stroke="none" 
	d="
M185.111847,291.181396 
	C185.720352,290.888458 186.315353,291.030182 186.989044,291.526611 
	C186.411255,291.792938 185.754807,291.704498 185.111847,291.181396 
z"/>
<path fill="#020101" opacity="1.000000" stroke="none" 
	d="
M188.859909,294.096741 
	C189.439636,294.105316 189.709518,294.278748 190.071045,294.726807 
	C189.625137,294.754791 189.087601,294.508179 188.859909,294.096741 
z"/>
<path fill="#020101" opacity="1.000000" stroke="none" 
	d="
M186.863235,292.295471 
	C187.421112,292.040009 187.760193,292.183319 188.104828,292.619629 
	C187.621735,292.839783 187.133087,292.766998 186.863235,292.295471 
z"/>
<path fill="#020101" opacity="1.000000" stroke="none" 
	d="
M187.887787,293.277710 
	C188.456406,293.018372 188.825272,293.147552 189.162415,293.585632 
	C188.649796,293.818420 188.168915,293.742310 187.887787,293.277710 
z"/>
<path fill="#EA3747" opacity="1.000000" stroke="none" 
	d="
M240.120575,249.052612 
	C239.218781,249.703369 238.326126,250.904205 237.413757,250.919373 
	C228.772659,251.062943 220.128220,251.004868 211.428909,251.004868 
	C211.530014,250.444443 211.529083,249.914474 211.644135,249.887970 
	C221.599106,247.594360 222.286530,246.744003 222.287598,236.541656 
	C222.289948,213.880569 222.287582,191.219482 222.287216,168.558395 
	C222.287109,161.983292 222.287216,155.408173 222.287216,150.779755 
	C227.405884,155.426132 233.861664,161.286255 240.709900,167.477020 
	C248.046402,175.205261 254.990448,182.602859 262.095520,190.295563 
	C264.504150,192.865372 266.751831,195.140076 269.062378,197.728653 
	C270.865417,199.768723 272.605560,201.494919 274.494080,203.489838 
	C283.009064,212.822372 291.375641,221.886169 300.730835,232.020981 
	C300.730835,211.149826 300.730835,191.829849 300.803436,172.019135 
	C300.916565,169.549835 300.989105,167.571320 300.992249,165.592712 
	C301.008087,155.624512 299.242737,153.333572 290.413269,151.450897 
	C293.730499,151.008545 297.360016,150.524551 300.989532,150.040558 
	C306.720795,150.325851 312.452057,150.611145 317.716156,150.873184 
	C314.817993,152.569672 310.753418,153.682922 308.997009,156.328522 
	C307.194031,159.044312 307.221436,163.253387 307.185242,166.816406 
	C307.019470,183.131638 305.824432,199.585648 307.530365,215.722198 
	C308.834900,228.061935 304.302673,240.250305 309.050049,252.333130 
	C308.523926,252.564560 307.997803,252.796005 307.471680,253.027451 
	C306.171906,251.754456 304.872131,250.481461 303.113831,248.747620 
	C299.751587,245.510330 296.847931,242.733887 293.934814,239.618408 
	C283.873718,228.416275 273.828705,217.547043 263.745667,206.713150 
	C263.352997,206.291229 262.596313,206.208069 261.963501,205.625885 
	C254.998016,197.859055 248.078293,190.433365 241.015167,182.697235 
	C237.194061,178.418274 233.516373,174.449753 229.066986,169.648514 
	C229.066986,194.417053 229.010208,217.993179 229.140518,241.568237 
	C229.156403,244.440536 230.278839,247.223007 234.088043,247.766129 
	C236.166702,248.398560 238.143646,248.725586 240.120575,249.052612 
z"/>
<path fill="#FE3131" opacity="1.000000" stroke="none" 
	d="
M293.944275,239.957443 
	C296.847931,242.733887 299.751587,245.510330 302.810120,248.569977 
	C282.323761,248.903839 261.682556,248.954514 240.580963,249.028900 
	C238.143646,248.725586 236.166702,248.398560 234.423248,247.601990 
	C239.356430,245.355209 241.045654,241.805481 241.038483,236.962219 
	C241.011856,218.977463 241.108322,200.992538 241.158569,183.007675 
	C248.078293,190.433365 254.998016,197.859055 261.996643,206.097473 
	C262.075500,218.793503 262.075500,230.676788 262.075500,243.023132 
	C273.167328,242.416290 283.854553,244.787430 293.944275,239.957443 
z"/>
<path fill="#ED3848" opacity="1.000000" stroke="none" 
	d="
M376.713287,194.578705 
	C367.155914,205.072220 352.666168,204.276566 346.088348,193.200195 
	C341.765015,185.920197 343.143799,176.101761 349.302338,170.312378 
	C355.176147,164.790695 365.282867,163.927017 371.940643,168.377792 
	C379.137329,173.188843 382.092682,182.320831 378.976013,190.315887 
	C378.438446,191.694901 377.625854,192.966690 376.713287,194.578705 
z"/>
<path fill="#F83030" opacity="1.000000" stroke="none" 
	d="
M261.934509,190.000458 
	C254.990448,182.602859 248.046402,175.205261 241.065750,167.475433 
	C241.018188,165.315033 241.030945,163.486343 240.991943,161.658737 
	C240.864868,155.702621 238.588669,153.082718 232.549561,151.866440 
	C231.862656,151.728104 231.199097,151.473969 230.589615,150.438599 
	C232.142685,150.349945 233.695663,150.186188 235.248840,150.184250 
	C250.872681,150.164825 266.499054,150.331879 282.119080,150.086105 
	C287.695160,149.998352 293.251892,148.888123 298.828400,148.359940 
	C299.523041,148.294144 300.284943,148.938614 301.002625,149.647278 
	C297.360016,150.524551 293.730499,151.008545 290.413269,151.450897 
	C299.242737,153.333572 301.008087,155.624512 300.992249,165.592712 
	C300.989105,167.571320 300.916565,169.549835 300.512817,171.737106 
	C299.403381,165.389771 297.860016,158.358231 290.428925,157.430832 
	C281.205414,156.279739 271.729034,157.154968 261.934509,157.154968 
	C261.934509,168.064774 261.934509,179.032623 261.934509,190.000458 
z"/>
<path fill="#070202" opacity="1.000000" stroke="none" 
	d="
M262.095520,190.295563 
	C261.934509,179.032623 261.934509,168.064774 261.934509,157.154968 
	C271.729034,157.154968 281.205414,156.279739 290.428925,157.430832 
	C297.860016,158.358231 299.403381,165.389771 300.440186,172.227859 
	C300.730835,191.829849 300.730835,211.149826 300.730835,232.020981 
	C291.375641,221.886169 283.009064,212.822372 274.916260,203.501328 
	C284.749634,202.476456 292.179565,204.876602 294.113617,215.809128 
	C294.113617,210.496445 294.113617,205.183777 294.113617,199.871094 
	C294.113617,194.797791 294.113617,189.724503 294.113617,184.651199 
	C290.744751,195.005264 287.826294,197.249115 276.980103,197.277985 
	C274.319794,197.285065 271.659668,197.367172 268.999481,197.414780 
	C266.751831,195.140076 264.504150,192.865372 262.095520,190.295563 
z"/>
<path fill="#020101" opacity="1.000000" stroke="none" 
	d="
M241.015167,182.697235 
	C241.108322,200.992538 241.011856,218.977463 241.038483,236.962219 
	C241.045654,241.805481 239.356430,245.355209 234.321503,247.296570 
	C230.278839,247.223007 229.156403,244.440536 229.140518,241.568237 
	C229.010208,217.993179 229.066986,194.417053 229.066986,169.648514 
	C233.516373,174.449753 237.194061,178.418274 241.015167,182.697235 
z"/>
<path fill="#070202" opacity="1.000000" stroke="none" 
	d="
M293.934814,239.618408 
	C283.854553,244.787430 273.167328,242.416290 262.075500,243.023132 
	C262.075500,230.676788 262.075500,218.793503 262.042358,206.438629 
	C262.596313,206.208069 263.352997,206.291229 263.745667,206.713150 
	C273.828705,217.547043 283.873718,228.416275 293.934814,239.618408 
z"/>
<path fill="#F83030" opacity="1.000000" stroke="none" 
	d="
M269.062378,197.728653 
	C271.659668,197.367172 274.319794,197.285065 276.980103,197.277985 
	C287.826294,197.249115 290.744751,195.005264 294.113617,184.651199 
	C294.113617,189.724503 294.113617,194.797791 294.113617,199.871094 
	C294.113617,205.183777 294.113617,210.496445 294.113617,215.809128 
	C292.179565,204.876602 284.749634,202.476456 274.767853,203.232590 
	C272.605560,201.494919 270.865417,199.768723 269.062378,197.728653 
z"/>
</svg>